<?xml version="1.0" encoding="UTF-8"?><svg id="Capa_2" xmlns="http://www.w3.org/2000/svg" viewBox="0 0 269.42 55.16"><defs><style>.cls-1{fill:#1b8bc7;stroke:#1b8bc7;stroke-width:.22px;}</style></defs><g id="Layer_1"><path d="M17.34,31.1v-.07c3.83-.83,6.51-2.15,6.51-5.76,0-4.06-3.16-5.68-6.96-5.68-3.38,0-5.83.15-8.8.15l-.07.56c.86.11,3.19.23,3.19,1.5,0,1.21-6.09,18.01-7.1,20.83-.75,2.03-1.32,2.22-4.06,2.78l-.04.56c1.8-.19,3.61-.19,5.41-.19s3.57.19,6.43.19c4.51,0,11.32-2.86,11.32-9.1,0-3.72-2.33-5.49-5.83-5.79ZM15.46,20.64c.34-.19,1.13-.23,1.32-.23,2.4,0,3.72,1.35,3.72,3.12,0,6.24-3.5,7.22-8.69,7.22l3.65-10.11ZM11.39,45.16c-1.65,0-2.97-.42-3.95-1.28l4.18-12.33c4.55.04,7.74,1.02,7.74,5.11,0,4.74-3.57,8.5-7.97,8.5Z"/><path d="M37.23,17.26c-1.21,3.68-8.73,24.18-8.73,26.02,0,.98,1.24,1.13,1.92,1.13,1.92,0,4.02-2.18,4.13-2.18s.19.07.19.22c0,.34-4.14,3.88-6.62,3.88-1.39,0-2.75-.94-2.75-2.33,0-.9,4.85-13.87,8.84-26.73h3.01Z"/><path d="M52.23,42.41c-.53,0-2.03,2.18-3.61,2.18-.72,0-1.66-.34-1.66-1.16,0-.71,3.61-10.83,4.66-12.93h-2.63c-.19.38-.38.83-.6,1.24-.27-.87-.94-1.51-1.88-1.51-3.16,0-11.62,6.84-11.62,12.82,0,1.47.56,3.2,2.37,3.2,3.01,0,6.77-3.91,8.27-6.28l.03.07c-.38,1.02-1.88,3.46-1.88,4.48,0,1.2,1.35,1.73,2.33,1.73,3.31,0,6.43-3.31,6.43-3.65,0-.19-.07-.19-.22-.19ZM45.5,38.95c-.87,1.96-3.31,5.41-5.72,5.41-.98,0-1.77-.71-1.77-1.73,0-3.2,2.33-6.88,4.18-9.44.79-1.09,1.01-1.47,2.44-1.47,1.01,0,2.86,1.05,2.86,2.33,0,.53-1.58,4.09-1.99,4.89Z"/><path d="M59.97,44.67c2.03,0,4.21-2.86,4.48-2.86.19,0,.37,0,.37.26,0,.71-4.17,4.17-7.22,4.17-2.52,0-4.06-1.92-4.06-4.36,0-4.7,5.94-11.7,10.75-11.7,1.39,0,2.33,1.17,2.33,2.52,0,1.13-.45,2.41-1.81,2.41-.9,0-1.47-.49-1.47-1.36,0-.45.26-.79.57-1.05-.26-.94-1.01-1.24-1.92-1.24-2.89,0-5.11,7.6-5.11,10.04,0,2.03,1.09,3.16,3.08,3.16Z"/><path d="M66.93,45.76l10-28.58h2.97c-2.41,6.47-4.66,12.9-7.22,19.1l.11.12c2.07-1.92,5.83-6.21,8.88-6.21,2.22,0,2.85.87,2.85,2.48,0,.42-.04.9-.07,1.39l-2.4.41c-.19-1.43-.23-2.55-1.96-2.55s-3.57,1.8-4.85,2.74c1.13,2.93,3.46,10.61,7.33,10.61,1.13,0,1.96-.6,2.11-.6.07,0,.15.07.15.26,0,.49-2.67,1.32-4.21,1.32-4.74,0-5.94-5.83-7.33-9.7l-.75.6c-.98,3.05-2.14,5.75-2.85,8.61h-2.75Z"/><path d="M84.9,51.32c2.03-1.31,4.44-4.13,4.44-6.65,0-1.09-.56-1.66-1.31-2.37.68-.86,1.73-1.47,2.82-1.47.94,0,1.77.71,1.77,1.66,0,3.91-4.4,7.33-7.41,9.17l-.3-.34Z"/><path d="M122.2,27.86c-.19-3.76-1.2-7.82-5.6-7.82-7.22,0-11.77,10.98-11.77,17.26,0,4.02,1.65,7.37,6.13,7.37,4.74,0,8.09-3.95,10.45-7.56l.53.33c-2.29,4.37-7.48,9.18-12.6,9.18s-8.31-3.65-8.31-8.65c0-9.51,8.31-18.99,18.16-18.99,1.69,0,3.57.45,5.04,1.2-.64,2.52-1.17,5.11-1.62,7.67h-.41Z"/><path d="M140.66,42.41c-.53,0-2.03,2.18-3.61,2.18-.72,0-1.66-.34-1.66-1.16,0-.71,3.53-10.83,4.66-12.93h-2.63c-.18.38-.41.83-.6,1.24-.27-.87-.94-1.51-1.88-1.51-3.23,0-11.66,6.84-11.66,12.82,0,1.47.6,3.2,2.41,3.2,3.01,0,6.77-3.91,8.24-6.28l.07.07c-.37,1.02-1.92,3.46-1.92,4.48,0,1.2,1.35,1.73,2.33,1.73,3.35,0,6.47-3.31,6.47-3.65,0-.19-.15-.19-.23-.19ZM133.93,38.95c-.87,1.96-3.31,5.41-5.75,5.41-.94,0-1.73-.71-1.73-1.73,0-3.2,2.33-6.88,4.17-9.44.79-1.09,1.02-1.47,2.37-1.47,1.09,0,2.94,1.05,2.94,2.33,0,.53-1.66,4.09-1.99,4.89Z"/><path d="M146.98,30.76h3.01l-2.25,5.76.07.11c1.28-2.22,3.5-6.39,6.47-6.39,1.5,0,2.56.98,2.56,2.52,0,1.09-.53,2.63-1.92,2.63-.9,0-1.54-.6-1.54-1.51,0-.49.23-.9.49-1.31-.38-.34-.98-.41-1.47-.41-3.35,0-6.8,10.98-7.56,13.65h-2.74l4.89-15.04Z"/><path d="M200.33,30.57c-1.77,5.56-4.1,14.74-7.41,19.7-1.32,1.99-3.61,4.89-6.02,4.89-1.2,0-2.14-.53-2.14-1.61,0-.87.57-1.62,1.47-1.62,1.81,0,1.24,1.54,2.29,1.54.9,0,2.18-2.18,2.52-2.82,1.46-2.97,5.15-16.17,6.28-20.08h3.01Z"/><path d="M204.24,20.87c0,1.16-.86,2.22-1.92,2.22-1.2,0-1.84-.49-1.84-1.73,0-1.13.87-2.18,1.92-2.18,1.13,0,1.84.49,1.84,1.7Z"/><path d="M169.2,30.19c-2.63,0-5.6,2.97-7.07,4.85l-.07-.04c2.11-4.7,4.59-11.77,6.92-17.78h-3.01c-3.53,9.85-6.92,18.69-7.33,19.97-1.13,3.31-2.48,6.02-2.48,6.35,0,.6,1.02,2.74,3.27,2.74,5.45,0,12.52-7.9,12.52-13.31,0-1.65-1.09-2.79-2.74-2.79ZM161.83,45.04c-.83,0-2.33-.79-2.33-1.77,0-2.93,3.84-11.43,7.63-11.43.98,0,1.47,1.09,1.47,1.95,0,2.85-3.35,11.24-6.77,11.24Z"/><path d="M190.41,42.41c-.53,0-2.03,2.18-3.61,2.18-.71,0-1.65-.34-1.65-1.16,0-.71,3.54-10.83,4.66-12.93h-2.63c-.19.38-.41.83-.6,1.24-.26-.87-.94-1.51-1.88-1.51-3.24,0-11.62,6.84-11.62,12.82,0,1.47.56,3.2,2.37,3.2,3.01,0,6.77-3.91,8.27-6.28l.04.07c-.37,1.02-1.88,3.46-1.88,4.48,0,1.2,1.35,1.73,2.3,1.73,3.34,0,6.47-3.31,6.47-3.65,0-.19-.07-.19-.22-.19ZM183.67,38.95c-.86,1.96-3.31,5.41-5.71,5.41-.98,0-1.77-.71-1.77-1.73,0-3.2,2.33-6.88,4.17-9.44.79-1.09,1.02-1.47,2.37-1.47,1.09,0,2.94,1.05,2.94,2.33,0,.53-1.58,4.09-2,4.89Z"/><path d="M218.6,42.41c-.49,0-1.99,2.18-3.61,2.18-.64,0-1.62-.34-1.62-1.16,0-.71,3.57-10.83,4.66-12.93h-2.67c-.15.38-.37.83-.56,1.24-.26-.87-.94-1.51-1.88-1.51-3.2,0-11.65,6.84-11.65,12.82,0,1.47.6,3.2,2.41,3.2,3.01,0,6.73-3.91,8.24-6.28l.11.07c-.41,1.02-1.95,3.46-1.95,4.48,0,1.2,1.35,1.73,2.33,1.73,3.35,0,6.47-3.31,6.47-3.65,0-.19-.11-.19-.26-.19ZM211.91,38.95c-.86,1.96-3.31,5.41-5.75,5.41-.94,0-1.77-.71-1.77-1.73,0-3.2,2.37-6.88,4.21-9.44.79-1.09.98-1.47,2.4-1.47,1.06,0,2.9,1.05,2.9,2.33,0,.53-1.62,4.09-1.99,4.89Z"/><path d="M238.42,0c-1.24,3.69-14.59,41.44-14.59,43.28,0,.98,1.27,1.13,1.95,1.13,1.96,0,4.02-2.18,4.13-2.18.15,0,.23.07.23.22,0,.34-4.14,3.88-6.69,3.88-1.32,0-2.75-.94-2.75-2.33,0-.9,10.68-31.17,14.66-43.99h3.05Z"/><path class="cls-1" d="M239.62.75c1.66.71,3.35,1.35,5.08,2.07,5.53,3.27,10.15,7.41,16.28,9.7,2.71.86,5.22,1.01,8.08,1.16-4.93,3.05-10.72,4.85-16.58,5.15-5.87.3-13.27-.49-18.69,1.43.6-6.84,4.89-12.79,5.83-19.51h0Z"/></g></svg>